HIERARCHY
ROOT Hips
{
	OFFSET 0.00000 0.00000 0.00000
	CHANNELS 6 Xposition Yposition Zposition Zrotation Yrotation Xrotation 
	JOINT LHipJoint
	{
		OFFSET 0 0 0
		CHANNELS 3 Zrotation Yrotation Xrotation
		JOINT LeftUpLeg
		{
			OFFSET 1.28858 -1.83292 1.03970
			CHANNELS 3 Zrotation Yrotation Xrotation
			JOINT LeftLeg
			{
				OFFSET 2.47846 -6.80952 0.00000
				CHANNELS 3 Zrotation Yrotation Xrotation
				JOINT LeftFoot
				{
					OFFSET 2.75274 -7.56311 0.00000
					CHANNELS 3 Zrotation Yrotation Xrotation
					JOINT LeftToeBase
					{
						OFFSET 0.12848 -0.35301 1.68223
						CHANNELS 3 Zrotation Yrotation Xrotation
						End Site
						{
							OFFSET 0.00000 -0.00000 0.87311
						}
					}
				}
			}
		}
	}
	JOINT RHipJoint
	{
		OFFSET 0 0 0
		CHANNELS 3 Zrotation Yrotation Xrotation
		JOINT RightUpLeg
		{
			OFFSET -1.31183 -1.83292 1.03970
			CHANNELS 3 Zrotation Yrotation Xrotation
			JOINT RightLeg
			{
				OFFSET -2.44740 -6.72417 0.00000
				CHANNELS 3 Zrotation Yrotation Xrotation
				JOINT RightFoot
				{
					OFFSET -2.67343 -7.34519 0.00000
					CHANNELS 3 Zrotation Yrotation Xrotation
					JOINT RightToeBase
					{
						OFFSET -0.16914 -0.46471 1.77626
						CHANNELS 3 Zrotation Yrotation Xrotation
						End Site
						{
							OFFSET -0.00000 -0.00000 0.92777
						}
					}
				}
			}
		}
	}
	JOINT LowerBack
	{
		OFFSET 0 0 0
		CHANNELS 3 Zrotation Yrotation Xrotation
		JOINT Spine
		{
			OFFSET 0.01249 2.14252 0.03842
			CHANNELS 3 Zrotation Yrotation Xrotation
			JOINT Spine1
			{
				OFFSET -0.02957 2.14199 -0.03751
				CHANNELS 3 Zrotation Yrotation Xrotation
				JOINT Neck
				{
					OFFSET 0 0 0
					CHANNELS 3 Zrotation Yrotation Xrotation
					JOINT Neck1
					{
						OFFSET -0.01678 1.65709 -0.05476
						CHANNELS 3 Zrotation Yrotation Xrotation
						JOINT Head
						{
							OFFSET 0.07912 1.58331 -0.11843
							CHANNELS 3 Zrotation Yrotation Xrotation
							End Site
							{
								OFFSET 0.03298 1.73940 -0.04271
							}
						}
					}
				}
				JOINT LeftShoulder
				{
					OFFSET 0 0 0
					CHANNELS 3 Zrotation Yrotation Xrotation
					JOINT LeftArm
					{
						OFFSET 3.39556 1.16496 0.08673
						CHANNELS 3 Zrotation Yrotation Xrotation
						JOINT LeftForeArm
						{
							OFFSET 5.23910 -0.00000 -0.00000
							CHANNELS 3 Zrotation Yrotation Xrotation
							JOINT LeftHand
							{
								OFFSET 3.31467 -0.00000 0.00000
								CHANNELS 3 Zrotation Yrotation Xrotation
								JOINT LeftFingerBase
								{
									OFFSET 0 0 0
									CHANNELS 3 Zrotation Yrotation Xrotation
									JOINT LeftHandIndex1
									{
										OFFSET 0.96590 -0.00000 0.00000
										CHANNELS 3 Zrotation Yrotation Xrotation
										End Site
										{
											OFFSET 0.77873 -0.00000 0.00000
										}
									}
								}
								JOINT LThumb
								{
									OFFSET 0 0 0
									CHANNELS 3 Zrotation Yrotation Xrotation
									End Site
									{
										OFFSET 0.79062 -0.00000 0.79062
									}
								}
							}
						}
					}
				}
				JOINT RightShoulder
				{
					OFFSET 0 0 0
					CHANNELS 3 Zrotation Yrotation Xrotation
					JOINT RightArm
					{
						OFFSET -3.27193 1.31331 0.33940
						CHANNELS 3 Zrotation Yrotation Xrotation
						JOINT RightForeArm
						{
							OFFSET -5.30252 -0.00000 0.00000
							CHANNELS 3 Zrotation Yrotation Xrotation
							JOINT RightHand
							{
								OFFSET -3.67875 -0.00000 0.00000
								CHANNELS 3 Zrotation Yrotation Xrotation
								JOINT RightFingerBase
								{
									OFFSET 0 0 0
									CHANNELS 3 Zrotation Yrotation Xrotation
									JOINT RightHandIndex1
									{
										OFFSET -0.59481 -0.00000 0.00000
										CHANNELS 3 Zrotation Yrotation Xrotation
										End Site
										{
											OFFSET -0.47955 -0.00000 0.00000
										}
									}
								}
								JOINT RThumb
								{
									OFFSET 0 0 0
									CHANNELS 3 Zrotation Yrotation Xrotation
									End Site
									{
										OFFSET -0.48687 -0.00000 0.48687
									}
								}
							}
						}
					}
				}
			}
		}
	}
}
MOTION
Frames: 13
Frame Time: .0083333
9.4403 18.1200 -15.5826 -4.1273 8.9398 2.0534 0.0000 0.0000 0.0000 -8.4012 -2.5517 -28.4135 7.9459 16.0793 52.3676 -0.0457 -5.1787 -1.8728 1.1353 6.7670 19.0270 0.0000 0.0000 0.0000 26.9768 3.2528 5.1958 -0.0492 -1.4311 3.9358 -0.8043 -6.6976 -20.6605 -0.0990 -2.0293 5.5867 5.3383 2.2277 -1.6572 -0.1149 2.8421 0.8981 -3.0020 1.4928 2.1215 -2.0445 -3.6147 2.2754 4.9046 -5.0021 4.4337 1.8595 -2.4782 1.1856 0.0000 -0.0000 0.0000 -80.3033 6.0179 37.7056 10.0117 -16.7579 -1.4783 -0.0000 0.0000 -7.6908 12.4373 -10.3414 -2.2672 -7.1250 0.0000 -0.0000 -10.3311 19.4824 6.3981 0.0000 -0.0000 0.0000 81.5186 -7.8265 31.4383 -16.5658 26.2819 -3.8931 0.0000 0.0000 5.6482 2.6892 -46.9650 -1.9663 7.1250 -0.0000 -0.0000 59.6947 -67.8990 -37.6679
9.4531 18.1110 -15.4350 -4.1434 8.6510 2.1147 0.0000 0.0000 0.0000 -8.4364 -2.6481 -28.8166 7.3454 15.6160 50.1689 -0.0540 -5.5745 -1.9701 1.1112 6.6972 18.8212 0.0000 0.0000 0.0000 27.1044 3.2192 5.7723 -0.0462 -1.3869 3.8141 -0.8533 -6.4713 -20.9596 -0.0879 -1.9121 5.2627 5.4411 2.3490 -1.6510 -0.2012 3.0036 0.8822 -3.1417 1.5753 2.1269 -2.0472 -3.5762 2.3455 4.7920 -4.9454 4.3841 1.8255 -2.4525 1.1522 -0.0000 0.0000 0.0000 -80.2516 6.4013 36.9348 10.0775 -16.8607 -1.4973 -0.0000 0.0000 -8.2696 12.6383 -10.3920 -2.3162 -7.1250 0.0000 -0.0000 -10.1877 19.4214 6.3205 -0.0000 0.0000 0.0000 81.2874 -7.4168 31.5396 -16.8352 26.6400 -4.0132 0.0000 0.0000 5.1903 2.3074 -46.7301 -1.6805 7.1250 -0.0000 -0.0000 58.8978 -67.8983 -37.0347
9.4670 18.1002 -15.2871 -4.1731 8.3681 2.2034 0.0000 0.0000 0.0000 -8.4547 -2.7761 -29.1527 6.7224 15.0936 47.8165 -0.0563 -5.8068 -2.1480 1.0595 6.5444 18.3726 0.0000 0.0000 0.0000 27.2284 3.1742 6.3034 -0.0436 -1.3475 3.7055 -0.9047 -6.2112 -21.2533 -0.0792 -1.8149 4.9944 5.5618 2.4675 -1.6673 -0.2879 3.1599 0.8589 -3.2911 1.6555 2.1389 -2.0656 -3.5304 2.3488 4.7112 -4.8817 4.3811 1.8032 -2.4219 1.1462 -0.0000 0.0000 0.0000 -80.2002 6.7774 36.2240 10.1477 -16.9703 -1.5178 -0.0000 0.0000 -8.8326 12.7910 -10.3563 -2.3371 -7.1250 0.0000 -0.0000 -10.0813 19.4495 6.2459 -0.0000 0.0000 0.0000 81.0808 -7.0244 31.5902 -17.1211 27.0172 -4.1422 0.0000 0.0000 4.7974 1.9844 -46.5653 -1.4412 7.1250 -0.0000 -0.0000 58.2937 -67.9141 -36.5773
9.4819 18.0874 -15.1391 -4.1976 8.0909 2.3209 0.0000 0.0000 0.0000 -8.4757 -2.9409 -29.4232 6.0859 14.5111 45.3255 -0.0524 -5.8666 -2.3737 0.9991 6.3609 17.8353 0.0000 0.0000 0.0000 27.3205 3.1121 6.7722 -0.0419 -1.3212 3.6329 -0.9594 -5.8983 -21.5383 -0.0722 -1.7338 4.7705 5.6777 2.5827 -1.7077 -0.3767 3.3106 0.8279 -3.4393 1.7328 2.1568 -2.1006 -3.4810 2.3065 4.6567 -4.8154 4.4171 1.7912 -2.3890 1.1616 0.0000 0.0000 0.0000 -80.1575 7.1389 35.5697 10.2114 -17.0695 -1.5364 -0.0000 0.0000 -9.3261 12.9272 -10.2448 -2.3377 -7.1250 0.0000 -0.0000 -9.9891 19.5548 6.1631 0.0000 0.0000 0.0000 80.8881 -6.6414 31.6127 -17.4184 27.4060 -4.2781 0.0000 0.0000 4.4382 1.7217 -46.5069 -1.2492 7.1250 -0.0000 -0.0000 57.9576 -67.9670 -36.3756
9.4977 18.0726 -14.9904 -4.2113 7.8185 2.4575 0.0000 0.0000 0.0000 -8.4999 -3.1332 -29.6128 5.4421 13.8650 42.6995 -0.0437 -5.7620 -2.5986 0.9529 6.2162 17.4130 0.0000 0.0000 0.0000 27.3790 3.0394 7.1992 -0.0410 -1.3074 3.5951 -1.0168 -5.5425 -21.8185 -0.0665 -1.6644 4.5791 5.7732 2.6917 -1.7726 -0.4633 3.4521 0.7917 -3.5729 1.8054 2.1819 -2.1496 -3.4306 2.2510 4.6204 -4.7487 4.4667 1.7874 -2.3557 1.1846 0.0000 0.0000 0.0000 -80.1361 7.4847 34.9516 10.2571 -17.1407 -1.5499 -0.0000 0.0000 -9.7214 13.0579 -10.0929 -2.3275 -7.1250 0.0000 -0.0000 -9.9019 19.7014 6.0747 0.0000 0.0000 0.0000 80.6916 -6.2565 31.6391 -17.7126 27.7875 -4.4144 0.0000 0.0000 4.0672 1.4797 -46.5393 -1.0742 7.1250 -0.0000 -0.0000 57.8265 -68.0625 -36.3840
9.5139 18.0562 -14.8399 -4.2155 7.5459 2.6001 0.0000 0.0000 0.0000 -8.5199 -3.3359 -29.7021 4.7971 13.1516 39.9387 -0.0330 -5.5472 -2.7873 0.9334 6.1542 17.2325 0.0000 0.0000 0.0000 27.4154 2.9759 7.6223 -0.0405 -1.2991 3.5723 -1.0759 -5.1691 -22.1027 -0.0623 -1.6100 4.4290 5.8410 2.7980 -1.8540 -0.5458 3.5896 0.7466 -3.6862 1.8752 2.2054 -2.1949 -3.3840 2.2176 4.5889 -4.6873 4.5141 1.7848 -2.3252 1.2033 0.0000 0.0000 0.0000 -80.1349 7.8224 34.3601 10.2722 -17.1642 -1.5543 -0.0000 0.0000 -9.9981 13.1654 -9.9477 -2.3139 -7.1250 0.0000 -0.0000 -9.8308 19.8426 5.9983 0.0000 0.0000 0.0000 80.4887 -5.8704 31.6713 -17.9839 28.1365 -4.5416 0.0000 0.0000 3.6839 1.2104 -46.5913 -0.8794 7.1250 -0.0000 -0.0000 57.7140 -68.1776 -36.4294
9.5308 18.0379 -14.6873 -4.2051 7.2750 2.7424 0.0000 0.0000 0.0000 -8.5444 -3.5435 -29.6832 4.1594 12.3695 37.0520 -0.0224 -5.2831 -2.9394 0.9464 6.1956 17.3530 0.0000 0.0000 0.0000 27.4243 2.9112 8.0568 -0.0400 -1.2910 3.5497 -1.1366 -4.7779 -22.3902 -0.0609 -1.5922 4.3799 5.8799 2.9020 -1.9465 -0.6295 3.7244 0.6920 -3.7842 1.9430 2.2239 -2.2281 -3.3367 2.2182 4.5663 -4.6252 4.5593 1.7836 -2.2946 1.2154 -0.0000 0.0000 0.0000 -80.1495 8.1605 33.7653 10.2555 -17.1382 -1.5494 -0.0000 0.0000 -10.1246 13.2183 -9.8564 -2.3025 -7.1250 0.0000 -0.0000 -9.7965 19.9321 5.9568 -0.0000 0.0000 0.0000 80.2825 -5.4902 31.7080 -18.2288 28.4491 -4.6577 0.0000 0.0000 3.3146 0.8735 -46.5719 -0.6344 7.1250 -0.0000 -0.0000 57.3961 -68.2760 -36.2940
9.5488 18.0175 -14.5325 -4.1832 7.0073 2.8841 0.0000 0.0000 0.0000 -8.5762 -3.7551 -29.5633 3.5406 11.5226 34.0634 -0.0111 -5.0014 -3.1194 0.9693 6.2680 17.5640 0.0000 0.0000 0.0000 27.4039 2.8239 8.4961 -0.0395 -1.2823 3.5258 -1.1983 -4.3590 -22.6714 -0.0621 -1.6075 4.4220 5.8997 2.9998 -2.0446 -0.7133 3.8512 0.6322 -3.8716 2.0063 2.2384 -2.2589 -3.2829 2.2398 4.5559 -4.5547 4.5949 1.7864 -2.2600 1.2208 0.0000 -0.0000 0.0000 -80.1865 8.4980 33.1393 10.2142 -17.0740 -1.5372 -0.0000 0.0000 -10.1036 13.1978 -9.8222 -2.2909 -7.1250 0.0000 -0.0000 -9.8122 19.9676 5.9587 0.0000 -0.0000 0.0000 80.0699 -5.1196 31.7526 -18.4592 28.7411 -4.7680 0.0000 0.0000 2.9725 0.4660 -46.4600 -0.3378 7.1250 -0.0000 -0.0000 56.8243 -68.3468 -35.9286
9.5679 17.9951 -14.3759 -4.1731 6.7309 3.0248 0.0000 0.0000 0.0000 -8.5849 -3.9629 -29.3566 2.9532 10.6189 31.0052 0.0032 -4.7109 -3.4104 0.9732 6.2805 17.6004 0.0000 0.0000 0.0000 27.3833 2.7235 8.9317 -0.0391 -1.2756 3.5074 -1.2599 -3.9241 -22.9457 -0.0640 -1.6323 4.4905 5.9216 3.0912 -2.1353 -0.7875 3.9698 0.5684 -3.9509 2.0651 2.2436 -2.2765 -3.2257 2.2646 4.5215 -4.4779 4.6060 1.7794 -2.2225 1.2166 0.0000 -0.0000 0.0000 -80.2500 8.8322 32.4898 10.1576 -16.9857 -1.5207 -0.0000 0.0000 -9.9672 13.1032 -9.7944 -2.2675 -7.1250 0.0000 -0.0000 -9.8803 20.0003 5.9939 0.0000 -0.0000 0.0000 79.8483 -4.7533 31.8080 -18.6810 29.0204 -4.8751 0.0000 0.0000 2.6812 0.0161 -46.2776 -0.0116 7.1250 -0.0000 -0.0000 56.0669 -68.3916 -35.3913
9.5877 17.9707 -14.2180 -4.1961 6.4342 3.1614 0.0000 0.0000 0.0000 -8.5405 -4.1659 -29.0690 2.4064 9.6657 27.9008 0.0222 -4.3948 -3.8578 0.9534 6.2178 17.4177 0.0000 0.0000 0.0000 27.3891 2.6145 9.3565 -0.0390 -1.2748 3.5051 -1.3197 -3.4898 -23.2073 -0.0640 -1.6318 4.4890 5.9642 3.1788 -2.2178 -0.8453 4.0828 0.5084 -4.0253 2.1212 2.2481 -2.2713 -3.1673 2.2779 4.4432 -4.3965 4.5782 1.7541 -2.1830 1.2000 0.0000 0.0000 0.0000 -80.3415 9.1522 31.8193 10.0918 -16.8830 -1.5015 -0.0000 0.0000 -9.7321 12.9469 -9.7619 -2.2322 -7.1250 0.0000 -0.0000 -9.9922 20.0408 6.0547 0.0000 0.0000 0.0000 79.6171 -4.3824 31.8770 -18.9002 29.2945 -4.9819 0.0000 0.0000 2.4513 -0.4465 -46.0401 0.3214 7.1250 -0.0000 -0.0000 55.1817 -68.4077 -34.7272
9.6084 17.9446 -14.0584 -4.2461 6.1150 3.2903 0.0000 0.0000 0.0000 -8.4486 -4.3796 -28.6979 1.9080 8.6718 24.7740 0.0477 -4.0231 -4.4804 0.9182 6.1051 17.0897 0.0000 0.0000 0.0000 27.4130 2.4874 9.7685 -0.0394 -1.2813 3.5233 -1.3752 -3.0750 -23.4471 -0.0573 -1.5440 4.2469 6.0220 3.2661 -2.3033 -0.8869 4.1940 0.4632 -4.0904 2.1773 2.2697 -2.2510 -3.1129 2.2785 4.3294 -4.3173 4.4997 1.7147 -2.1451 1.1684 -0.0000 -0.0000 0.0000 -80.4600 9.4385 31.1508 10.0133 -16.7603 -1.4788 -0.0000 0.0000 -9.4255 12.7616 -9.7361 -2.1935 -7.1250 0.0000 -0.0000 -10.1246 20.0758 6.1294 -0.0000 -0.0000 0.0000 79.3795 -4.0112 31.9451 -19.1299 29.5798 -5.0948 0.0000 0.0000 2.2700 -0.8814 -45.7977 0.6319 7.1250 -0.0000 -0.0000 54.3084 -68.4094 -34.0617
9.6301 17.9168 -13.8972 -4.3058 5.7816 3.4079 0.0000 0.0000 0.0000 -8.3292 -4.6269 -28.2402 1.4650 7.6492 21.6536 0.0799 -3.5894 -5.2591 0.8933 6.0241 16.8543 0.0000 0.0000 0.0000 27.4326 2.3352 10.1731 -0.0402 -1.2946 3.5598 -1.4261 -2.6942 -23.6698 -0.0439 -1.3530 3.7206 6.0826 3.3519 -2.3910 -0.9218 4.3026 0.4289 -4.1495 2.2327 2.3035 -2.2190 -3.0659 2.2812 4.1992 -4.2463 4.3846 1.6682 -2.1116 1.1245 0.0000 -0.0000 0.0000 -80.5866 9.7004 30.5354 9.9280 -16.6269 -1.4543 -0.0000 0.0000 -9.0938 12.5776 -9.6992 -2.1527 -7.1250 0.0000 -0.0000 -10.2565 20.1215 6.2011 0.0000 -0.0000 0.0000 79.1495 -3.6623 32.0062 -19.3782 29.8859 -5.2180 0.0000 0.0000 2.1312 -1.2629 -45.6016 0.9024 7.1250 -0.0000 -0.0000 53.5758 -68.4185 -33.5162
9.6530 17.8877 -13.7341 -4.3779 5.4415 3.5131 0.0000 0.0000 0.0000 -8.1733 -4.9237 -27.6987 1.0816 6.6102 18.5657 0.1177 -3.1092 -6.1472 0.9238 6.1232 17.1424 0.0000 0.0000 0.0000 27.4492 2.1559 10.5752 -0.0415 -1.3154 3.6171 -1.4738 -2.3358 -23.8797 -0.0286 -1.0912 2.9997 6.1559 3.4337 -2.4757 -0.9552 4.4053 0.3966 -4.2144 2.2854 2.3382 -2.1911 -3.0204 2.2918 4.0932 -4.1786 4.2664 1.6303 -2.0795 1.0795 -0.0000 -0.0000 0.0000 -80.7052 9.9562 30.0004 9.8411 -16.4906 -1.4295 -0.0000 0.0000 -8.7703 12.4008 -9.6582 -2.1126 -7.1250 0.0000 -0.0000 -10.3834 20.1710 6.2687 -0.0000 -0.0000 0.0000 78.9360 -3.3476 32.0688 -19.6415 30.2079 -5.3498 0.0000 0.0000 2.0055 -1.5962 -45.4649 1.1379 7.1250 -0.0000 -0.0000 53.0063 -68.4455 -33.1164
